<mxfile host="65bd71144e">
    <diagram id="T2SGenoJDVw-8LUJ9btR" name="Page-1">
        <mxGraphModel dx="373" dy="414" grid="1" gridSize="10" guides="1" tooltips="1" connect="1" arrows="1" fold="1" page="1" pageScale="1" pageWidth="827" pageHeight="1169" math="0" shadow="0">
            <root>
                <mxCell id="0"/>
                <mxCell id="1" parent="0"/>
                <mxCell id="21" value="NextJS API" style="shape=umlLifeline;perimeter=lifelinePerimeter;whiteSpace=wrap;html=1;container=1;collapsible=0;recursiveResize=0;outlineConnect=0;" vertex="1" parent="1">
                    <mxGeometry x="230" y="210" width="100" height="300" as="geometry"/>
                </mxCell>
                <mxCell id="22" value="" style="html=1;points=[];perimeter=orthogonalPerimeter;" vertex="1" parent="21">
                    <mxGeometry x="40" y="100" width="20" height="160" as="geometry"/>
                </mxCell>
                <mxCell id="23" value="" style="html=1;points=[];perimeter=orthogonalPerimeter;" vertex="1" parent="21">
                    <mxGeometry x="50" y="130" width="20" height="40" as="geometry"/>
                </mxCell>
                <mxCell id="24" value="getChartFromID" style="edgeStyle=orthogonalEdgeStyle;html=1;align=left;spacingLeft=2;endArrow=block;rounded=0;entryX=1;entryY=0;" edge="1" parent="21" target="23">
                    <mxGeometry x="-0.4286" y="10" relative="1" as="geometry">
                        <mxPoint x="60" y="110" as="sourcePoint"/>
                        <Array as="points">
                            <mxPoint x="90" y="110"/>
                            <mxPoint x="90" y="130"/>
                        </Array>
                        <mxPoint as="offset"/>
                    </mxGeometry>
                </mxCell>
                <mxCell id="40" style="edgeStyle=orthogonalEdgeStyle;html=1;entryX=0.98;entryY=0.925;entryDx=0;entryDy=0;entryPerimeter=0;exitX=0.978;exitY=0.925;exitDx=0;exitDy=0;exitPerimeter=0;rounded=0;dashed=1;" edge="1" parent="21" source="25" target="22">
                    <mxGeometry relative="1" as="geometry">
                        <Array as="points">
                            <mxPoint x="90" y="237"/>
                            <mxPoint x="90" y="248"/>
                        </Array>
                    </mxGeometry>
                </mxCell>
                <mxCell id="41" value="return html File" style="edgeLabel;html=1;align=center;verticalAlign=middle;resizable=0;points=[];" vertex="1" connectable="0" parent="40">
                    <mxGeometry x="-0.4671" y="1" relative="1" as="geometry">
                        <mxPoint x="24" y="-6" as="offset"/>
                    </mxGeometry>
                </mxCell>
                <mxCell id="25" value="" style="html=1;points=[];perimeter=orthogonalPerimeter;" vertex="1" parent="21">
                    <mxGeometry x="50" y="200" width="20" height="40" as="geometry"/>
                </mxCell>
                <mxCell id="26" value="getFile" style="edgeStyle=orthogonalEdgeStyle;html=1;align=left;spacingLeft=2;endArrow=block;rounded=0;entryX=1;entryY=0;" edge="1" parent="21" target="25">
                    <mxGeometry relative="1" as="geometry">
                        <mxPoint x="60" y="180" as="sourcePoint"/>
                        <Array as="points">
                            <mxPoint x="90" y="180"/>
                            <mxPoint x="90" y="200"/>
                        </Array>
                    </mxGeometry>
                </mxCell>
                <mxCell id="27" value="DataBase" style="shape=umlLifeline;perimeter=lifelinePerimeter;whiteSpace=wrap;html=1;container=1;collapsible=0;recursiveResize=0;outlineConnect=0;lifelineDashed=0;" vertex="1" parent="1">
                    <mxGeometry x="399" y="210" width="100" height="300" as="geometry"/>
                </mxCell>
                <mxCell id="28" value="" style="html=1;points=[];perimeter=orthogonalPerimeter;" vertex="1" parent="27">
                    <mxGeometry x="41" y="140" width="18" height="30" as="geometry"/>
                </mxCell>
                <mxCell id="31" value="My Charts&lt;br&gt;Page" style="shape=umlLifeline;perimeter=lifelinePerimeter;whiteSpace=wrap;html=1;container=1;collapsible=0;recursiveResize=0;outlineConnect=0;" vertex="1" parent="1">
                    <mxGeometry x="87" y="210" width="100" height="300" as="geometry"/>
                </mxCell>
                <mxCell id="32" value="" style="html=1;points=[];perimeter=orthogonalPerimeter;" vertex="1" parent="31">
                    <mxGeometry x="40" y="80" width="20" height="190" as="geometry"/>
                </mxCell>
                <mxCell id="33" value="return Chart" style="html=1;verticalAlign=bottom;endArrow=open;dashed=1;endSize=8;exitX=0;exitY=0.896;entryX=1.034;entryY=0.915;entryDx=0;entryDy=0;entryPerimeter=0;edgeStyle=orthogonalEdgeStyle;rounded=0;exitDx=0;exitDy=0;exitPerimeter=0;" edge="1" parent="1" source="28" target="23">
                    <mxGeometry x="-0.0258" relative="1" as="geometry">
                        <mxPoint x="360" y="416" as="targetPoint"/>
                        <Array as="points">
                            <mxPoint x="301" y="377"/>
                        </Array>
                        <mxPoint as="offset"/>
                    </mxGeometry>
                </mxCell>
                <mxCell id="34" value="SQL : Select Chart" style="html=1;verticalAlign=bottom;endArrow=block;entryX=0;entryY=0;exitX=0.98;exitY=0.256;exitDx=0;exitDy=0;exitPerimeter=0;edgeStyle=orthogonalEdgeStyle;" edge="1" parent="1" source="23" target="28">
                    <mxGeometry x="0.2878" relative="1" as="geometry">
                        <mxPoint x="360" y="340" as="sourcePoint"/>
                        <Array as="points">
                            <mxPoint x="370" y="350"/>
                            <mxPoint x="439" y="350"/>
                        </Array>
                        <mxPoint as="offset"/>
                    </mxGeometry>
                </mxCell>
                <mxCell id="35" value="return html File" style="html=1;verticalAlign=bottom;endArrow=open;dashed=1;endSize=8;exitX=0;exitY=0.95;entryX=1.033;entryY=0.9;entryDx=0;entryDy=0;entryPerimeter=0;edgeStyle=orthogonalEdgeStyle;" edge="1" parent="1" source="22" target="32">
                    <mxGeometry x="0.0283" y="-2" relative="1" as="geometry">
                        <mxPoint x="200" y="386" as="targetPoint"/>
                        <mxPoint as="offset"/>
                    </mxGeometry>
                </mxCell>
                <mxCell id="36" value="REST : downloadchart" style="html=1;verticalAlign=bottom;endArrow=block;entryX=0;entryY=0;exitX=0.99;exitY=0.109;exitDx=0;exitDy=0;exitPerimeter=0;" edge="1" parent="1" source="32" target="22">
                    <mxGeometry relative="1" as="geometry">
                        <mxPoint x="200" y="310" as="sourcePoint"/>
                    </mxGeometry>
                </mxCell>
                <mxCell id="37" value="" style="shape=umlLifeline;participant=umlActor;perimeter=lifelinePerimeter;whiteSpace=wrap;html=1;container=1;collapsible=0;recursiveResize=0;verticalAlign=top;spacingTop=36;outlineConnect=0;" vertex="1" parent="1">
                    <mxGeometry x="7" y="200" width="20" height="300" as="geometry"/>
                </mxCell>
                <mxCell id="38" value="Click on button&lt;br&gt;to display a chart" style="html=1;verticalAlign=bottom;endArrow=block;entryX=0;entryY=0;" edge="1" parent="1" source="37" target="32">
                    <mxGeometry relative="1" as="geometry">
                        <mxPoint x="57" y="290" as="sourcePoint"/>
                    </mxGeometry>
                </mxCell>
                <mxCell id="39" value="Display the chart" style="html=1;verticalAlign=bottom;endArrow=open;dashed=1;endSize=8;exitX=0;exitY=0.95;" edge="1" parent="1" source="32" target="37">
                    <mxGeometry x="-0.0905" relative="1" as="geometry">
                        <mxPoint x="47" y="470" as="targetPoint"/>
                        <mxPoint as="offset"/>
                    </mxGeometry>
                </mxCell>
            </root>
        </mxGraphModel>
    </diagram>
</mxfile>